<?xml version="1.0" standalone="no"?>
<!DOCTYPE svg PUBLIC "-//W3C//DTD SVG 20010904//EN"
 "http://www.w3.org/TR/2001/REC-SVG-20010904/DTD/svg10.dtd">
<svg version="1.0" xmlns="http://www.w3.org/2000/svg"
 width="800.000000pt" height="800.000000pt" viewBox="0 0 800.000000 800.000000"
 preserveAspectRatio="xMidYMid meet">
<metadata>
Created by potrace 1.11, written by Peter Selinger 2001-2013
</metadata>
<g transform="translate(0.000000,800.000000) scale(0.100000,-0.100000)"
fill="#000000" stroke="none">
<path d="M2605 7796 c-148 -25 -241 -55 -415 -134 -133 -61 -309 -189 -436
-317 -58 -58 -164 -188 -164 -200 0 -4 -11 -21 -24 -38 -58 -78 -127 -259
-146 -387 -17 -110 -18 -118 -25 -200 -3 -41 -8 -82 -10 -90 -2 -8 -6 -46 -10
-85 -3 -38 -8 -81 -10 -95 -11 -68 -46 -389 -47 -418 0 -67 53 -106 111 -82
37 15 48 43 61 155 40 331 52 378 129 509 57 98 192 238 287 300 216 138 422
124 573 -39 48 -52 78 -108 103 -195 34 -120 37 -210 24 -715 -4 -148 -9 -353
-11 -455 -3 -102 -7 -196 -9 -210 -3 -14 -7 -54 -11 -90 -7 -72 -11 -100 -18
-145 -12 -68 -21 -120 -22 -125 -1 -3 -5 -25 -9 -50 -14 -81 -27 -116 -44
-117 -78 -5 -237 -4 -282 2 -202 25 -316 21 -398 -15 -26 -12 -177 -108 -337
-214 -159 -107 -366 -235 -460 -286 -93 -51 -190 -104 -215 -117 -25 -14 -74
-41 -110 -60 -83 -46 -110 -62 -253 -158 -334 -222 -387 -371 -176 -489 45
-24 189 -71 253 -81 17 -3 42 -7 56 -10 14 -2 43 -7 65 -10 22 -3 51 -8 65
-10 14 -2 84 -13 155 -24 72 -11 144 -22 161 -25 17 -3 46 -8 65 -11 19 -2 45
-7 59 -9 28 -5 54 -9 235 -36 72 -11 173 -26 225 -34 125 -19 206 -28 455 -52
17 -1 33 -3 37 -3 8 -1 7 -11 -13 -141 -36 -232 -44 -340 -37 -476 3 -71 9
-142 12 -159 4 -16 11 -55 17 -85 56 -278 236 -558 460 -717 116 -82 433 -219
613 -264 227 -57 337 -79 471 -95 28 -3 60 -7 73 -9 157 -25 606 -25 792 0 19
2 58 7 85 10 28 4 57 8 65 10 8 2 40 7 70 10 30 4 58 9 61 11 3 2 21 6 40 9
198 35 453 129 604 225 104 65 217 170 274 253 95 140 135 283 135 487 l0 95
108 -1 c182 -2 324 30 618 141 69 26 136 51 150 55 14 5 149 51 300 103 276
96 304 106 525 190 66 25 138 51 160 57 71 22 151 68 183 105 42 47 45 90 11
158 -28 54 -173 194 -297 287 -59 43 -111 83 -117 87 -27 22 -217 141 -292
185 -142 80 -195 110 -303 167 -135 73 -708 354 -816 401 -38 17 -43 23 -49
62 -22 141 -105 395 -191 583 -73 162 -130 278 -156 320 -66 105 -176 266
-288 420 -64 89 -148 209 -186 268 -38 60 -97 151 -131 204 -35 53 -63 98 -63
101 0 11 -120 152 -177 208 -35 34 -118 104 -186 155 -191 145 -258 200 -305
249 -54 56 -122 142 -159 203 -15 25 -55 90 -87 144 -66 109 -157 242 -195
287 -73 84 -122 136 -176 186 -217 202 -441 318 -720 375 -65 13 -282 14 -360
1z"/>
</g>
</svg>
